<?xml version="1.0" encoding="utf-8"?>
<!-- Generator: Adobe Illustrator 19.0.0, SVG Export Plug-In . SVG Version: 6.00 Build 0)  -->
<svg version="1.1" id="Layer_1" xmlns="http://www.w3.org/2000/svg" xmlns:xlink="http://www.w3.org/1999/xlink" x="0px" y="0px"
	 viewBox="0 0 32.6 32.6" style="enable-background:new 0 0 32.6 32.6;" xml:space="preserve">
<style type="text/css">
	.st0{fill:#DDDDDD;}
	.st1{fill:#FFFFFF;}
</style>
<g id="XMLID_114_">
	<circle id="XMLID_1_" class="st0" cx="16.3" cy="16.3" r="15.3"/>
	<path id="XMLID_2_" class="st1" d="M16.3,32.6C7.3,32.6,0,25.3,0,16.3S7.3,0,16.3,0c9,0,16.3,7.3,16.3,16.3S25.3,32.6,16.3,32.6z
		 M16.3,2C8.4,2,2,8.4,2,16.3c0,7.9,6.4,14.3,14.3,14.3s14.3-6.4,14.3-14.3C30.6,8.4,24.1,2,16.3,2z"/>
</g>
<g id="XMLID_111_">
	<path id="XMLID_113_" d="M23.5,8.8c-0.3,0.1-0.5,0.4-0.4,0.8c0.4,2.5-2.1,6.1-4.8,8.9c-2.7,2.7-6.2,5.2-8.7,4.8
		c-0.3-0.1-0.6,0.1-0.8,0.4c-0.7,1.6-0.8,2.8-0.2,3.4c1.5,1.5,6.8-1.5,11.9-6.6s8.1-10.5,6.6-12C26.5,7.8,25.2,8,23.5,8.8z"/>
	<path id="XMLID_112_" d="M9.8,9.8c-3.5,3.6-5.5,7.4-4.3,8.5L9.1,22c1.1,1.1,4.9-0.8,8.4-4.4c3.5-3.6,5.5-7.4,4.3-8.5l-3.7-3.7
		C17.1,4.3,13.3,6.3,9.8,9.8z"/>
</g>
</svg>
